<svg xmlns="http://www.w3.org/2000/svg" viewBox="0 0 920 2416" width="920" height="2416">
<g fill="none" stroke="#000000" stroke-width="0.7" stroke-linecap="round" stroke-linejoin="round">
  <path d="M 33,2412 L 37,2411"/>
  <path d="M 60,2406 L 62,2408 L 61,2403"/>
  <path d="M 159,2399 L 167,2398"/>
  <path d="M 104,2400 L 108,2400 L 107,2398"/>
  <path d="M 536,2398 L 540,2397"/>
  <path d="M 506,2398 L 522,2397"/>
  <path d="M 182,2397 L 180,2399 L 210,2398 L 200,2397 L 191,2397 L 186,2398 L 185,2397 Z"/>
  <path d="M 171,2397 L 169,2399 L 178,2399 L 178,2397 L 173,2398 Z"/>
  <path d="M 148,2397 L 148,2399 L 156,2399 L 156,2397 L 154,2398 Z"/>
  <path d="M 138,2397 L 138,2399 L 143,2399 L 143,2397"/>
  <path d="M 129,2397 L 129,2399 L 136,2399 L 136,2397 Z"/>
  <path d="M 123,2397 L 122,2400 L 124,2399 L 127,2399 L 127,2397"/>
  <path d="M 110,2397 L 110,2399 L 113,2400 L 113,2398"/>
  <path d="M 530,2396 L 529,2397 L 524,2398 L 533,2398 L 533,2396"/>
  <path d="M 468,2396 L 468,2399 L 482,2399 L 483,2398 L 485,2398 L 484,2396 L 482,2396 L 481,2397 L 477,2396 Z"/>
  <path d="M 95,2408 L 95,2402 L 97,2400 L 100,2399 L 97,2399 L 95,2396"/>
  <path d="M 369,2392 L 367,2395 L 365,2396 L 359,2396 L 356,2397 L 347,2396 L 343,2398 L 335,2397 L 332,2395 L 304,2395 L 303,2399 L 357,2398 L 458,2398 L 466,2399 L 466,2397 L 464,2396 L 462,2396 L 461,2398 L 454,2395 L 447,2396 L 447,2394 L 445,2394 L 444,2396 L 438,2397 L 432,2395 L 429,2395 L 422,2397 L 413,2396 L 404,2398 L 403,2396 L 400,2396 L 393,2398 L 375,2397 L 374,2395 L 372,2396 Z"/>
  <path d="M 804,2377 L 802,2372 L 801,2381 L 802,2385 L 801,2387 L 796,2388 L 795,2387 L 791,2388 L 795,2390 L 792,2391 L 791,2390 L 788,2391 L 789,2393 L 785,2394 L 786,2392 L 784,2391 L 786,2389 L 784,2389 L 783,2392 L 785,2395 L 781,2395 L 779,2392 L 776,2391 L 774,2388 L 772,2389 L 775,2390 L 774,2392 L 772,2393 L 770,2392 L 772,2393 L 769,2395 L 759,2395 L 758,2393 L 755,2393 L 755,2395 L 758,2396 L 752,2397 L 751,2395 L 748,2394 L 746,2395 L 744,2393 L 744,2397 L 740,2395 L 741,2392 L 740,2390 L 738,2389 L 735,2389 L 734,2387 L 732,2389 L 734,2390 L 731,2392 L 732,2394 L 729,2395 L 728,2397 L 727,2395 L 725,2394 L 727,2392 L 725,2392 L 724,2395 L 717,2396 L 716,2394 L 714,2395 L 713,2397 L 702,2396 L 703,2394 L 699,2397 L 692,2397 L 689,2396 L 688,2397 L 670,2397 L 667,2395 L 666,2397 L 659,2396 L 651,2398 L 671,2399 L 750,2399 L 748,2400 L 748,2402 L 750,2402 L 750,2400 L 752,2398 L 754,2399 L 774,2398 L 776,2400 L 774,2402 L 772,2402 L 773,2406 L 774,2403 L 776,2407 L 775,2415 L 777,2415 L 778,2412 L 777,2410 L 780,2409 L 779,2401 L 778,2408 L 778,2398 L 787,2398 L 791,2400 L 784,2401 L 782,2403 L 782,2406 L 784,2407 L 785,2410 L 783,2411 L 784,2415 L 785,2413 L 788,2415 L 808,2413 L 818,2415 L 818,2413 L 817,2412 L 816,2408 L 819,2406 L 820,2401 L 817,2398 L 824,2398 L 830,2397 L 831,2399 L 835,2400 L 832,2405 L 829,2407 L 835,2408 L 836,2415 L 837,2411 L 838,2415 L 840,2414 L 843,2415 L 844,2411 L 847,2407 L 845,2408 L 844,2399 L 849,2399 L 849,2408 L 851,2409 L 851,2415 L 858,2414 L 856,2414 L 854,2412 L 858,2412 L 858,2409 L 862,2405 L 858,2405 L 856,2401 L 858,2398 L 864,2398 L 868,2399 L 869,2398 L 874,2399 L 886,2397 L 889,2399 L 919,2398 L 919,2394 L 914,2393 L 909,2394 L 902,2393 L 903,2391 L 897,2394 L 889,2391 L 886,2392 L 886,2394 L 884,2396 L 883,2393 L 873,2395 L 871,2392 L 866,2392 L 863,2394 L 858,2392 L 848,2392 L 845,2389 L 842,2389 L 840,2391 L 836,2392 L 834,2391 L 833,2389 L 830,2388 L 829,2391 L 824,2390 L 824,2387 L 822,2385 L 815,2385 L 812,2387 L 812,2384 L 811,2387 L 809,2388 L 808,2386 L 803,2386 L 802,2382 L 804,2378 L 807,2378 L 806,2371 Z"/>
  <path d="M 407,2331 L 407,2333 L 409,2333 L 409,2331"/>
  <path d="M 654,2302 L 656,2302 L 656,2300"/>
  <path d="M 425,2248 L 424,2250 L 426,2250 L 426,2246"/>
  <path d="M 102,2210 L 105,2214 L 105,2215 L 107,2216 L 105,2212"/>
  <path d="M 118,1929 L 119,1931 L 121,1930"/>
  <path d="M 103,1920 L 103,1922 L 105,1922 L 105,1920"/>
  <path d="M 488,1921 L 490,1921 L 490,1919"/>
  <path d="M 134,1918 L 135,1919 L 135,1922 L 138,1921 L 136,1920 L 135,1916"/>
  <path d="M 339,1918 L 341,1921 L 341,1904 Z"/>
  <path d="M 341,1898 L 341,1893"/>
  <path d="M 370,1888 L 375,1887"/>
  <path d="M 564,1887 L 567,1888 L 566,1886"/>
  <path d="M 578,1886 L 582,1887 L 583,1918 L 583,1885 Z"/>
  <path d="M 574,1885 L 572,1887 L 576,1885"/>
  <path d="M 340,1887 L 340,1889 L 346,1887 L 346,1885 Z"/>
  <path d="M 125,1882 L 125,1884 L 127,1884 L 127,1882"/>
  <path d="M 866,1874 L 867,1877 L 869,1877"/>
  <path d="M 279,1864 L 283,1863"/>
  <path d="M 269,1858 L 275,1857"/>
  <path d="M 565,1851 L 567,1855 L 571,1852 L 573,1855 L 572,1862 L 575,1862 L 575,1860 L 573,1859 L 574,1855 L 573,1853 L 571,1851 L 568,1852 Z"/>
  <path d="M 354,1852 L 351,1852 L 349,1855 L 349,1859 L 348,1861 L 345,1863 L 343,1863 L 341,1866 L 342,1869 L 344,1867 L 345,1864 L 349,1861 L 351,1862 L 350,1857 L 352,1855 L 355,1855 L 357,1853 L 356,1850 Z"/>
  <path d="M 170,1851 L 172,1851 L 172,1849"/>
  <path d="M 519,1849 L 523,1848"/>
  <path d="M 383,1848 L 383,1850 L 387,1848"/>
  <path d="M 364,1848 L 366,1854 L 367,1852 L 366,1850 L 369,1848 Z"/>
  <path d="M 56,1845 L 56,1847 L 58,1846 L 60,1847 L 58,1846 L 58,1844"/>
  <path d="M 365,1530 L 366,1532 L 368,1532 L 368,1530"/>
  <path d="M 140,1200 L 142,1202 L 142,1200"/>
  <path d="M 140,912 L 138,913 L 142,913 L 142,911"/>
  <path d="M 378,884 L 379,887 L 379,898 L 380,887"/>
  <path d="M 378,857 L 379,881 L 380,876 L 380,857 Z"/>
  <path d="M 530,855 L 532,856 L 533,872 L 534,856 L 533,854 Z"/>
  <path d="M 485,855 L 493,854"/>
  <path d="M 469,855 L 478,854"/>
  <path d="M 145,854 L 146,857 L 144,859 L 148,857 L 146,856 L 147,854"/>
  <path d="M 527,850 L 531,849"/>
  <path d="M 495,850 L 513,849"/>
  <path d="M 467,850 L 491,849"/>
  <path d="M 433,849 L 449,848"/>
  <path d="M 182,845 L 182,849 L 184,849 L 184,845"/>
  <path d="M 519,842 L 523,841"/>
  <path d="M 456,842 L 480,841"/>
  <path d="M 446,842 L 450,841"/>
  <path d="M 546,836 L 543,840 L 540,841 L 536,839 L 534,839 L 532,841 L 531,839 L 529,840 L 529,842 L 534,840 L 535,842 L 539,843 L 537,844 L 534,848 L 534,851 L 541,849 L 538,850 L 537,847 L 541,843 L 543,843 L 544,845 L 546,846 L 546,844 L 544,841 L 548,838 L 548,836 Z"/>
  <path d="M 370,836 L 373,840 L 370,843 L 370,848 L 377,855 L 382,855 L 382,849 L 428,848 L 380,847 L 380,839 L 375,840 Z"/>
  <path d="M 167,838 L 165,840 L 167,840 L 168,838 L 169,841 L 171,841 L 170,837 L 168,835 L 170,834 L 169,832 L 173,831 L 170,830 L 169,832 L 168,830 Z"/>
  <path d="M 182,835 L 180,837 L 182,838 L 181,841 L 183,842 L 186,841 L 185,837 L 184,839 L 184,835 L 186,834 L 183,833 L 183,829 Z"/>
  <path d="M 433,825 L 550,824"/>
  <path d="M 406,825 L 410,824"/>
  <path d="M 375,825 L 379,824"/>
  <path d="M 192,821 L 191,827 L 195,826 L 194,824 L 192,823 L 193,821 L 192,819 Z"/>
  <path d="M 501,819 L 509,818"/>
  <path d="M 534,818 L 532,818 L 534,820 L 536,819 L 536,817"/>
  <path d="M 573,812 L 574,816 L 572,818 L 564,819 L 574,818 L 576,812 Z"/>
  <path d="M 183,814 L 182,815 L 183,821 L 184,818 L 192,816 L 190,815 L 190,813 L 189,815 L 186,816 L 184,814 L 184,811 Z"/>
  <path d="M 539,811 L 545,812 L 557,810 Z"/>
  <path d="M 518,811 L 525,812 L 525,810"/>
  <path d="M 393,810 L 398,809"/>
  <path d="M 385,810 L 390,809"/>
  <path d="M 377,810 L 383,809"/>
  <path d="M 190,809 L 190,811 L 192,811 L 192,809"/>
  <path d="M 562,810 L 559,811 L 565,810 L 565,808"/>
  <path d="M 337,805 L 341,808 L 339,811 L 340,819 L 342,819 L 343,817 L 344,820 L 347,821 L 348,826 L 355,826 L 368,835 L 365,831 L 361,828 L 360,828 L 358,825 L 348,824 L 349,821 L 351,820 L 359,819 L 347,820 L 345,817 L 341,814 L 342,810 L 348,809 L 346,809 L 345,807 L 341,806 L 338,804 Z"/>
  <path d="M 192,801 L 192,803 L 194,803"/>
  <path d="M 169,805 L 169,801"/>
  <path d="M 528,795 L 532,794"/>
  <path d="M 389,792 L 389,794 L 392,794 L 392,792"/>
  <path d="M 368,794 L 375,793 L 373,792"/>
  <path d="M 543,799 L 543,791"/>
  <path d="M 183,790 L 183,792 L 186,790"/>
  <path d="M 558,789 L 576,788"/>
  <path d="M 498,788 L 505,787"/>
  <path d="M 533,786 L 507,788 L 536,788 L 535,786 Z"/>
  <path d="M 487,787 L 491,787 L 492,788 L 496,787 L 493,787 L 492,786"/>
  <path d="M 452,787 L 466,786"/>
  <path d="M 438,787 L 450,786"/>
  <path d="M 202,786 L 204,788 L 204,786"/>
  <path d="M 471,787 L 479,787 L 479,785"/>
  <path d="M 404,785 L 406,787 L 406,785"/>
  <path d="M 368,784 L 371,787 L 371,784"/>
  <path d="M 192,784 L 191,785 L 192,793 L 196,793 L 195,787 L 193,786 L 193,782 Z"/>
  <path d="M 181,782 L 181,785 L 183,785 L 183,781"/>
  <path d="M 325,779 L 326,781 L 328,782 L 331,782 L 333,784 L 334,797 L 334,786 L 336,784 L 331,780 Z"/>
  <path d="M 94,778 L 92,780 L 96,780 L 96,778"/>
  <path d="M 91,773 L 93,775 L 95,774 L 94,772 L 93,774 L 92,772"/>
  <path d="M 124,768 L 129,767"/>
  <path d="M 164,768 L 167,769 L 168,771 L 169,769 L 180,768 L 181,769 L 188,769 L 190,768 L 191,779 L 193,778 L 194,775 L 192,774 L 195,770 L 192,769 L 206,767 L 172,766 Z"/>
  <path d="M 587,765 L 587,768 L 589,769 L 589,773 L 587,775 L 583,776 L 586,777 L 583,784 L 580,787 L 580,793 L 579,798 L 578,800 L 576,801 L 574,805 L 572,804 L 571,806 L 568,806 L 568,808 L 571,808 L 575,810 L 577,806 L 576,804 L 579,803 L 582,796 L 582,791 L 584,785 L 586,784 L 590,776 L 590,774 L 592,770 L 591,766 L 589,765 Z"/>
  <path d="M 583,765 L 584,768 L 585,765"/>
  <path d="M 569,765 L 564,768 L 569,767 L 572,770 L 577,768 L 578,770 L 581,771 L 581,765 L 571,765 Z"/>
  <path d="M 100,763 L 98,764 L 97,766 L 94,766 L 94,768 L 97,768 L 98,769 L 110,769 L 112,768 L 111,763 L 110,767 L 104,766 L 103,763 Z"/>
  <path d="M 130,761 L 132,762 L 131,768 L 134,768 L 132,760 Z"/>
  <path d="M 97,758 L 98,761 L 100,761"/>
  <path d="M 378,756 L 370,765 L 368,764 L 367,766 L 356,765 L 330,767 L 322,766 L 317,768 L 321,769 L 322,776 L 325,777 L 328,775 L 322,774 L 323,768 L 332,769 L 332,774 L 335,775 L 333,774 L 334,771 L 342,773 L 343,770 L 346,772 L 349,768 L 350,770 L 352,771 L 351,773 L 353,773 L 355,775 L 353,769 L 362,768 L 364,770 L 365,768 L 366,771 L 370,772 L 370,775 L 368,776 L 369,778 L 371,776 L 371,769 L 377,769 L 379,772 L 379,770 L 383,767 L 402,767 L 404,768 L 406,780 L 406,774 L 408,767 L 410,767 L 412,769 L 417,767 L 420,768 L 422,771 L 424,770 L 425,767 L 435,768 L 437,767 L 438,770 L 440,770 L 441,768 L 444,767 L 456,768 L 478,768 L 479,778 L 480,768 L 482,769 L 489,767 L 498,769 L 506,768 L 508,770 L 509,768 L 516,769 L 516,766 L 501,766 L 499,764 L 498,766 L 475,765 L 461,766 L 460,764 L 457,764 L 452,766 L 449,766 L 448,765 L 441,764 L 439,766 L 434,765 L 408,765 L 407,766 L 403,765 L 381,765 L 377,766 L 374,764 L 375,762 L 386,752 L 387,749 Z"/>
  <path d="M 93,751 L 95,751 L 95,748"/>
  <path d="M 191,743 L 195,742"/>
  <path d="M 164,743 L 186,742"/>
  <path d="M 392,741 L 392,743 L 395,741"/>
  <path d="M 130,741 L 130,758 L 132,758 L 132,754 L 133,753 L 131,743 L 133,741 Z"/>
  <path d="M 130,731 L 130,739 L 133,739 L 132,731 Z"/>
  <path d="M 130,727 L 130,729 L 132,729 L 132,727"/>
  <path d="M 143,733 L 143,721"/>
  <path d="M 130,721 L 130,725 L 133,725 L 132,721 Z"/>
  <path d="M 371,712 L 382,711"/>
  <path d="M 99,715 L 99,711"/>
  <path d="M 130,708 L 132,715 L 130,716 L 130,719 L 133,719 L 132,717 L 133,712 L 132,711 L 132,708 Z"/>
  <path d="M 97,702 L 99,708 L 99,702"/>
  <path d="M 130,701 L 130,703 L 132,703 L 132,701"/>
  <path d="M 141,699 L 143,707 L 143,697"/>
  <path d="M 406,697 L 414,696"/>
  <path d="M 390,697 L 399,696"/>
  <path d="M 382,697 L 387,696"/>
  <path d="M 356,697 L 380,696"/>
  <path d="M 337,697 L 354,696"/>
  <path d="M 316,697 L 330,696"/>
  <path d="M 495,696 L 506,695"/>
  <path d="M 489,696 L 493,695"/>
  <path d="M 459,696 L 468,695"/>
  <path d="M 438,697 L 442,696 L 442,694"/>
  <path d="M 170,686 L 190,685"/>
  <path d="M 129,685 L 132,695 L 130,696 L 130,699 L 132,699 L 133,695 L 132,690 L 134,686 L 136,687 L 138,685 L 133,687 L 132,685 Z"/>
  <path d="M 201,685 L 220,684"/>
  <path d="M 370,684 L 376,683"/>
  <path d="M 289,684 L 296,683"/>
  <path d="M 481,683 L 488,682"/>
  <path d="M 501,683 L 503,686 L 504,683 L 507,682 L 504,682"/>
  <path d="M 97,691 L 99,691 L 100,687 L 99,678 Z"/>
  <path d="M 412,677 L 412,681 L 414,681 L 414,677"/>
  <path d="M 516,680 L 516,675"/>
  <path d="M 526,695 L 526,674"/>
  <path d="M 479,683 L 479,674"/>
  <path d="M 130,674 L 130,678 L 132,678 L 132,674"/>
  <path d="M 453,682 L 451,684 L 454,683 L 457,677 L 455,678 L 454,671 Z"/>
  <path d="M 470,666 L 472,666 L 472,664"/>
  <path d="M 466,669 L 463,672 L 465,671 L 467,678 L 467,663 Z"/>
  <path d="M 163,652 L 164,657"/>
  <path d="M 480,655 L 480,651"/>
  <path d="M 454,669 L 454,648"/>
  <path d="M 516,655 L 516,647"/>
  <path d="M 130,644 L 130,646 L 129,647 L 130,650 L 130,647 L 132,646 L 132,644"/>
  <path d="M 112,664 L 112,639"/>
  <path d="M 426,646 L 426,637"/>
  <path d="M 480,649 L 480,635"/>
  <path d="M 391,681 L 389,683 L 378,684 L 394,683 L 392,682 L 392,635 Z"/>
  <path d="M 467,661 L 467,634"/>
  <path d="M 504,648 L 504,632"/>
  <path d="M 426,635 L 426,631"/>
  <path d="M 526,635 L 526,629"/>
  <path d="M 503,630 L 505,630 L 504,626"/>
  <path d="M 480,633 L 480,626"/>
  <path d="M 526,627 L 526,622"/>
  <path d="M 392,633 L 392,620"/>
  <path d="M 467,631 L 467,619"/>
  <path d="M 137,615 L 142,619 L 142,615 L 139,615"/>
  <path d="M 129,608 L 128,612 L 126,612 L 126,614 L 128,613 L 129,617 L 130,618 L 130,626 L 129,628 L 132,628 L 132,626 L 130,625 L 132,612 L 131,611 L 131,608 Z"/>
  <path d="M 163,609 L 163,605"/>
  <path d="M 509,601 L 513,604 L 510,600"/>
  <path d="M 142,606 L 142,599"/>
  <path d="M 454,597 L 455,619"/>
  <path d="M 402,594 L 403,599 L 405,598 L 407,599 L 409,597 L 409,595 L 404,592 Z"/>
  <path d="M 505,600 L 506,598 L 508,598 L 507,595 L 505,594 L 505,589"/>
  <path d="M 236,584 L 242,583"/>
  <path d="M 213,584 L 219,583"/>
  <path d="M 459,582 L 463,583 L 463,581"/>
  <path d="M 455,581 L 453,584 L 456,583 L 457,581"/>
  <path d="M 345,581 L 271,583 L 286,584 L 392,584 L 393,582 L 403,581 L 349,582 Z"/>
  <path d="M 508,579 L 506,581 L 517,581 L 517,579 L 515,579 L 514,580 L 512,580 L 511,579 Z"/>
  <path d="M 533,581 L 532,583 L 535,583 L 534,581 L 534,578"/>
  <path d="M 282,579 L 285,579 L 283,578"/>
  <path d="M 570,577 L 568,579 L 572,577"/>
  <path d="M 555,577 L 555,579 L 558,578 L 561,580 L 563,580 L 565,578 L 559,576 Z"/>
  <path d="M 575,572 L 574,573 L 575,575 L 576,573 L 576,570"/>
  <path d="M 130,595 L 129,606 L 131,606 L 130,566 Z"/>
  <path d="M 471,565 L 471,567 L 474,565"/>
  <path d="M 589,564 L 589,566 L 595,566 L 594,564 Z"/>
  <path d="M 531,564 L 531,566 L 533,566 L 533,564"/>
  <path d="M 525,580 L 522,581 L 521,580 L 519,580 L 520,583 L 522,582 L 524,584 L 525,589 L 525,583 L 529,582 L 527,579 L 526,579 L 525,564 Z"/>
  <path d="M 597,565 L 599,565 L 599,563"/>
  <path d="M 619,564 L 611,565 L 620,565 L 621,562"/>
  <path d="M 640,562 L 641,564 L 642,560"/>
  <path d="M 629,562 L 631,565 L 630,560"/>
  <path d="M 196,560 L 200,559"/>
  <path d="M 647,560 L 648,563 L 650,565 L 650,562 L 648,558 Z"/>
  <path d="M 585,558 L 586,561 L 588,562 L 587,558"/>
  <path d="M 451,559 L 468,558"/>
  <path d="M 416,559 L 447,558"/>
  <path d="M 405,559 L 414,558"/>
  <path d="M 393,559 L 403,558"/>
  <path d="M 376,559 L 380,558"/>
  <path d="M 575,558 L 574,561 L 576,563 L 577,568 L 577,564 L 578,563 L 578,557 Z"/>
  <path d="M 525,562 L 525,556"/>
  <path d="M 98,546 L 98,542"/>
  <path d="M 141,555 L 139,557 L 141,558 L 141,582 L 139,584 L 141,585 L 142,596 L 143,584 L 211,583 L 163,582 L 162,580 L 161,583 L 142,582 L 143,560 L 178,559 L 142,558 L 142,538 Z"/>
  <path d="M 109,536 L 109,538 L 111,540 L 111,535"/>
  <path d="M 98,540 L 98,535"/>
  <path d="M 129,547 L 129,533"/>
  <path d="M 141,531 L 141,533 L 144,532"/>
  <path d="M 111,532 L 111,528"/>
  <path d="M 97,532 L 99,530 L 98,527"/>
  <path d="M 660,527 L 659,556 L 657,558 L 655,558 L 657,559 L 656,563 L 658,562 L 660,567 L 659,561 L 661,558 L 660,534 L 661,531 L 663,530 L 663,527 L 660,524 Z"/>
  <path d="M 102,518 L 103,521 L 103,527 L 103,525 L 105,524 L 105,521 L 104,519 Z"/>
  <path d="M 111,526 L 111,513"/>
  <path d="M 177,513 L 184,512"/>
  <path d="M 163,513 L 175,512"/>
  <path d="M 141,524 L 141,511"/>
  <path d="M 133,507 L 134,511 L 136,509 L 135,507"/>
  <path d="M 161,505 L 173,504"/>
  <path d="M 672,503 L 671,510 L 673,510 L 674,504 L 677,503 Z"/>
  <path d="M 111,508 L 111,503"/>
  <path d="M 682,501 L 680,503 L 684,501"/>
  <path d="M 111,501 L 111,496"/>
  <path d="M 525,506 L 525,494"/>
  <path d="M 427,495 L 431,494"/>
  <path d="M 414,495 L 420,494"/>
  <path d="M 395,495 L 399,494"/>
  <path d="M 378,495 L 384,494"/>
  <path d="M 127,509 L 125,509 L 125,511 L 131,511 L 131,508 L 129,507 L 129,491 Z"/>
  <path d="M 141,509 L 142,505 L 147,504 L 141,502 L 141,485 Z"/>
  <path d="M 129,488 L 129,484"/>
  <path d="M 166,480 L 247,479"/>
  <path d="M 439,479 L 445,478"/>
  <path d="M 431,479 L 435,478"/>
  <path d="M 365,479 L 429,478"/>
  <path d="M 517,478 L 521,477"/>
  <path d="M 164,481 L 164,477"/>
  <path d="M 125,477 L 125,479 L 128,479 L 128,477"/>
  <path d="M 95,477 L 95,479 L 97,481 L 98,477"/>
  <path d="M 523,478 L 525,483 L 526,478 L 564,477 L 525,476 Z"/>
  <path d="M 451,478 L 447,479 L 456,478 L 455,476 L 454,478 L 453,476"/>
  <path d="M 100,477 L 103,478 L 105,477 L 108,477 L 106,476"/>
  <path d="M 641,477 L 625,477 L 620,476 L 610,478 L 635,477 L 654,478 L 654,476 L 647,475 Z"/>
  <path d="M 139,477 L 138,478 L 138,480 L 140,480 L 140,475"/>
  <path d="M 130,475 L 131,478 L 132,475"/>
  <path d="M 659,475 L 656,476 L 656,478 L 658,477 L 667,477 L 672,478 L 671,476 L 666,477 L 661,475 L 661,473 Z"/>
  <path d="M 525,414 L 525,409"/>
  <path d="M 525,401 L 525,396"/>
  <path d="M 525,391 L 525,378"/>
  <path d="M 660,377 L 657,381 L 660,379 L 662,385 L 662,377 Z"/>
  <path d="M 531,380 L 531,375"/>
  <path d="M 0,0 L 0,2415 L 17,2415 L 20,2413 L 21,2415 L 21,2412 L 16,2409 L 20,2406 L 23,2407 L 23,2405 L 25,2403 L 17,2402 L 16,2405 L 16,2400 L 92,2399 L 68,2398 L 48,2398 L 40,2399 L 33,2397 L 31,2397 L 28,2399 L 21,2397 L 20,2395 L 17,2397 L 14,2393 L 15,2395 L 11,2395 L 12,2392 L 8,2386 L 9,2377 L 7,2369 L 8,2359 L 7,2353 L 9,2352 L 7,2347 L 7,2343 L 8,2342 L 8,2324 L 7,2319 L 8,2313 L 8,2305 L 7,2295 L 9,2292 L 10,2274 L 9,2265 L 10,2259 L 9,2257 L 9,2248 L 11,2234 L 10,2230 L 11,2229 L 10,2224 L 11,2218 L 9,2214 L 9,2211 L 10,2210 L 10,2194 L 8,2178 L 9,2171 L 9,2152 L 8,2151 L 9,2147 L 9,2139 L 8,2137 L 10,2127 L 8,2124 L 9,2120 L 8,2109 L 10,2106 L 9,2091 L 9,2065 L 7,2060 L 8,2048 L 6,2047 L 8,2042 L 6,2041 L 8,2038 L 7,2009 L 9,2006 L 9,2002 L 7,1997 L 7,1979 L 8,1975 L 6,1974 L 6,1971 L 8,1967 L 8,1953 L 6,1954 L 5,1939 L 7,1937 L 5,1936 L 6,1913 L 7,1913 L 8,1911 L 6,1912 L 5,1910 L 7,1908 L 5,1906 L 8,1904 L 9,1890 L 8,1882 L 8,1851 L 9,1848 L 12,1846 L 11,1844 L 9,1843 L 10,1837 L 8,1833 L 10,1829 L 9,1825 L 10,1813 L 8,1808 L 9,1803 L 11,1801 L 9,1800 L 10,1798 L 8,1793 L 10,1790 L 10,1780 L 12,1779 L 9,1778 L 10,1770 L 8,1769 L 10,1766 L 8,1761 L 9,1759 L 8,1751 L 9,1743 L 11,1742 L 11,1740 L 10,1739 L 11,1735 L 9,1734 L 10,1727 L 8,1717 L 9,1715 L 9,1701 L 7,1678 L 9,1671 L 9,1642 L 7,1636 L 9,1631 L 9,1622 L 8,1620 L 9,1616 L 8,1612 L 10,1613 L 8,1604 L 10,1602 L 10,1598 L 7,1590 L 9,1589 L 8,1582 L 10,1581 L 8,1574 L 8,1558 L 10,1555 L 9,1551 L 9,1542 L 7,1541 L 8,1535 L 7,1533 L 9,1531 L 9,1528 L 7,1524 L 8,1512 L 6,1504 L 6,1502 L 8,1500 L 8,1491 L 11,1489 L 11,1486 L 9,1487 L 7,1474 L 8,1461 L 8,1372 L 7,1367 L 8,1366 L 7,1358 L 8,1348 L 10,1345 L 11,1340 L 8,1339 L 9,1329 L 7,1326 L 7,1310 L 9,1275 L 7,1254 L 8,1213 L 6,1209 L 8,1206 L 6,1200 L 6,1121 L 8,1118 L 7,1109 L 8,1108 L 7,1102 L 9,1093 L 9,1080 L 11,1077 L 7,1072 L 9,1070 L 11,1073 L 11,1071 L 8,1067 L 9,1063 L 11,1062 L 11,1056 L 8,1054 L 11,1050 L 10,1041 L 8,1038 L 9,1031 L 7,1029 L 9,1014 L 9,1003 L 7,1002 L 9,1000 L 9,996 L 7,994 L 9,993 L 10,988 L 8,986 L 8,983 L 9,982 L 9,972 L 8,971 L 9,964 L 9,919 L 8,915 L 10,912 L 10,908 L 7,906 L 8,878 L 9,872 L 9,859 L 7,856 L 9,842 L 8,838 L 9,832 L 7,825 L 7,789 L 8,785 L 7,784 L 7,781 L 8,780 L 8,778 L 7,777 L 7,755 L 9,744 L 6,734 L 6,711 L 7,710 L 7,677 L 5,661 L 7,651 L 6,642 L 8,640 L 9,635 L 9,628 L 7,627 L 7,625 L 8,624 L 7,619 L 7,611 L 9,610 L 9,607 L 7,603 L 7,591 L 9,590 L 9,580 L 8,579 L 9,575 L 8,573 L 10,572 L 10,568 L 8,567 L 9,559 L 7,558 L 8,555 L 10,554 L 10,552 L 8,550 L 10,548 L 8,547 L 10,538 L 8,535 L 11,530 L 9,529 L 10,525 L 10,519 L 8,517 L 8,506 L 10,505 L 10,503 L 8,499 L 8,495 L 10,494 L 7,470 L 9,467 L 9,460 L 8,459 L 8,455 L 10,454 L 10,449 L 8,440 L 8,436 L 10,435 L 10,432 L 8,428 L 7,420 L 7,407 L 9,399 L 7,398 L 9,397 L 7,390 L 7,387 L 8,386 L 8,384 L 7,383 L 8,379 L 8,375 L 7,374 L 7,372 L 8,371 L 7,343 L 9,339 L 7,331 L 7,304 L 9,300 L 7,288 L 8,282 L 7,281 L 8,275 L 7,273 L 7,260 L 8,259 L 7,255 L 9,252 L 7,251 L 7,245 L 8,240 L 8,226 L 5,225 L 7,222 L 8,213 L 7,207 L 8,206 L 7,198 L 8,185 L 7,180 L 8,179 L 8,169 L 6,166 L 6,158 L 7,155 L 6,154 L 6,151 L 7,150 L 7,144 L 5,142 L 5,140 L 7,139 L 6,136 L 7,132 L 6,128 L 7,127 L 7,125 L 5,124 L 5,103 L 7,91 L 6,85 L 7,80 L 7,62 L 5,58 L 5,55 L 7,52 L 5,50 L 7,47 L 7,45 L 5,43 L 7,32 L 5,28 L 7,27 L 7,22 L 5,19 L 7,13 L 5,12 L 7,8 L 5,7 L 5,4 L 7,3 L 6,0 Z"/>
</g>
</svg>